# xmcd CD database file
#
# Track frame offsets:
#	150
#	22359
#	44491
#	64680
#	87910
#	107375
#	131295
#	155345
#	181821
#	204253
#
# Disc length: 2890 seconds
#
# Revision: 0
# Processed by: cddbd v1.5.2PL0 Copyright (c) Steve Scherf et al.
# Submitted via: CDex 1.51
#
DISCID=7b0b480a
DTITLE=Yumiko Shiga - Duos and Solo
DYEAR=2011
DGENRE=Jazz
TTITLE0=Poor Butterfly
TTITLE1=Look To The Sky
TTITLE2=Laura
TTITLE3=Two For The Road
TTITLE4=Someone To Light Up My Life
TTITLE5=Alone Together
TTITLE6=Caminhos Cruzados
TTITLE7=Skating In Central Park
TTITLE8=Baubles, Bangles and Beads
TTITLE9=Danny Boy
EXTD=YEAR: 2011
EXTT0=
EXTT1=
EXTT2=
EXTT3=
EXTT4=
EXTT5=
EXTT6=
EXTT7=
EXTT8=
EXTT9=
PLAYORDER=
